<?xml version="1.0" encoding="UTF-8" standalone="no"?>
<!-- Created with Inkscape (http://www.inkscape.org/) -->

<svg
   xmlns:dc="http://purl.org/dc/elements/1.1/"
   xmlns:cc="http://creativecommons.org/ns#"
   xmlns:rdf="http://www.w3.org/1999/02/22-rdf-syntax-ns#"
   xmlns:svg="http://www.w3.org/2000/svg"
   xmlns="http://www.w3.org/2000/svg"
   xmlns:sodipodi="http://sodipodi.sourceforge.net/DTD/sodipodi-0.dtd"
   xmlns:inkscape="http://www.inkscape.org/namespaces/inkscape"
   width="1800"
   height="1800"
   viewBox="0 0 476.25 476.25"
   version="1.1"
   id="svg3721"
   inkscape:version="0.92.2 2405546, 2018-03-11"
   sodipodi:docname="drawing.svg">
  <defs
     id="defs3715" />
  <sodipodi:namedview
     id="base"
     pagecolor="#ffffff"
     bordercolor="#666666"
     borderopacity="1.0"
     inkscape:pageopacity="0.0"
     inkscape:pageshadow="2"
     inkscape:zoom="0.35"
     inkscape:cx="1612.8571"
     inkscape:cy="876.86521"
     inkscape:document-units="px"
     inkscape:current-layer="layer3"
     showgrid="false"
     units="px"
     inkscape:window-width="1920"
     inkscape:window-height="1018"
     inkscape:window-x="0"
     inkscape:window-y="0"
     inkscape:window-maximized="1" />
  <metadata
     id="metadata3718">
    <rdf:RDF>
      <cc:Work
         rdf:about="">
        <dc:format>image/svg+xml</dc:format>
        <dc:type
           rdf:resource="http://purl.org/dc/dcmitype/StillImage" />
        <dc:title />
      </cc:Work>
    </rdf:RDF>
  </metadata>
  <path
     d="M 0,0 0,476.25 M 79.375,0 l 0,476.25 M 158.75,0 l 0,476.25 M 238.125,0 l 0,476.25 M 317.5,0 l 0,476.25 M 396.875,0 l 0,476.25 M 476.25,0 l 0,476.25 M 0,0 476.25,0 M 0,79.375 l 476.25,0 M 0,158.75 l 476.25,0 M 0,238.125 l 476.25,0 M 0,317.5 l 476.25,0 M 0,396.875 l 476.25,0 M 0,476.25 l 476.25,0"
     style="fill:none;stroke:#000000;stroke-width:2.64583px"
     id="path45" />
  <path
     d="M 0,0 0,476.25 M 79.375,0 l 0,476.25 M 158.75,0 l 0,476.25 M 238.125,0 l 0,476.25 M 317.5,0 l 0,476.25 M 396.875,0 l 0,476.25 M 476.25,0 l 0,476.25 M 0,0 476.25,0 M 0,79.375 l 476.25,0 M 0,158.75 l 476.25,0 M 0,238.125 l 476.25,0 M 0,317.5 l 476.25,0 M 0,396.875 l 476.25,0 M 0,476.25 l 476.25,0"
     style="fill:none;stroke:#000000;stroke-width:2.64583px"
     id="path47" />
  <g
     inkscape:groupmode="layer"
     id="layer3"
     inkscape:label="Layer 1">
    <path
       style="fill:#ffcc00;stroke-width:2.85714293"
       d="M 7.7352312,149.42051 V 6.5633656 H 150.59237 293.44952 V 149.42051 292.27765 H 150.59237 7.7352312 Z"
       id="path55"
       inkscape:connector-curvature="0"
       transform="scale(0.26458333)" />
    <path
       style="fill:#ffcc00;stroke-width:2.85714293"
       d="M 7.7352312,449.42051 V 306.56337 H 150.59237 293.44952 V 449.42051 592.27765 H 150.59237 7.7352312 Z"
       id="path57"
       inkscape:connector-curvature="0"
       transform="scale(0.26458333)" />
    <path
       style="fill:#ffcc00;stroke-width:2.85714293"
       d="M 7.7352312,749.42051 V 606.56337 H 150.59237 293.44952 V 749.42051 892.27765 H 150.59237 7.7352312 Z"
       id="path59"
       inkscape:connector-curvature="0"
       transform="scale(0.26458333)" />
    <path
       style="fill:#ffcc00;stroke-width:2.85714293"
       d="M 7.7352312,1049.4205 V 906.56337 H 150.59237 293.44952 v 142.85713 142.8572 H 150.59237 7.7352312 Z"
       id="path61"
       inkscape:connector-curvature="0"
       transform="scale(0.26458333)" />
    <path
       style="fill:#ffcc00;stroke-width:2.85714293"
       d="M 7.7352312,1349.4205 V 1206.5634 H 150.59237 293.44952 v 142.8571 142.8572 H 150.59237 7.7352312 Z"
       id="path63"
       inkscape:connector-curvature="0"
       transform="scale(0.26458333)" />
    <path
       style="fill:#ffcc00;stroke-width:2.85714293"
       d="M 307.73523,149.42051 V 6.5633656 H 450.59237 593.44952 V 149.42051 292.27765 H 450.59237 307.73523 Z"
       id="path65"
       inkscape:connector-curvature="0"
       transform="scale(0.26458333)" />
    <path
       style="fill:#ffcc00;stroke-width:2.85714293"
       d="M 607.73523,149.42051 V 6.5633656 H 750.59237 893.44952 V 149.42051 292.27765 H 750.59237 607.73523 Z"
       id="path67"
       inkscape:connector-curvature="0"
       transform="scale(0.26458333)" />
    <path
       style="fill:#ffcc00;stroke-width:2.85714293"
       d="M 907.73523,149.42051 V 6.5633656 h 142.85717 142.8571 V 149.42051 292.27765 H 1050.5924 907.73523 Z"
       id="path69"
       inkscape:connector-curvature="0"
       transform="scale(0.26458333)" />
    <path
       style="fill:#ff6600;stroke-width:2.85714293"
       d="M 1207.7352,149.42051 V 6.5633656 h 142.8572 142.8571 V 149.42051 292.27765 h -142.8571 -142.8572 z"
       id="path71"
       inkscape:connector-curvature="0"
       transform="scale(0.26458333)" />
    <path
       style="fill:#ff6600;stroke-width:2.85714293"
       d="M 1507.7352,149.42051 V 6.5633656 h 142.8572 142.8571 V 149.42051 292.27765 h -142.8571 -142.8572 z"
       id="path73"
       inkscape:connector-curvature="0"
       transform="scale(0.26458333)" />
    <path
       style="fill:#ff6600;stroke-width:2.85714293"
       d="M 1507.7352,449.42051 V 306.56337 h 142.8572 142.8571 v 142.85714 142.85714 h -142.8571 -142.8572 z"
       id="path75"
       inkscape:connector-curvature="0"
       transform="scale(0.26458333)" />
    <path
       style="fill:#ff6600;stroke-width:2.85714293"
       d="M 1507.7352,749.42051 V 606.56337 h 142.8572 142.8571 v 142.85714 142.85714 h -142.8571 -142.8572 z"
       id="path77"
       inkscape:connector-curvature="0"
       transform="scale(0.26458333)" />
    <path
       style="fill:#ff6600;stroke-width:2.85714293"
       d="M 1507.7352,1049.4205 V 906.56337 h 142.8572 142.8571 v 142.85713 142.8572 h -142.8571 -142.8572 z"
       id="path79"
       inkscape:connector-curvature="0"
       transform="scale(0.26458333)" />
    <path
       style="fill:#ff6600;stroke-width:2.85714293"
       d="m 1507.7352,1349.4205 v -142.8571 h 142.8572 142.8571 v 142.8571 142.8572 h -142.8571 -142.8572 z"
       id="path81"
       inkscape:connector-curvature="0"
       transform="scale(0.26458333)" />
    <path
       style="fill:#ff6600;stroke-width:2.85714293"
       d="m 1507.7352,1649.4205 v -142.8571 h 142.8572 142.8571 v 142.8571 142.8572 h -142.8571 -142.8572 z"
       id="path83"
       inkscape:connector-curvature="0"
       transform="scale(0.26458333)" />
    <path
       style="fill:#ff6600;stroke-width:2.85714293"
       d="m 1207.7352,1649.4205 v -142.8571 h 142.8572 142.8571 v 142.8571 142.8572 h -142.8571 -142.8572 z"
       id="path85"
       inkscape:connector-curvature="0"
       transform="scale(0.26458333)" />
    <path
       style="fill:#ff6600;stroke-width:2.85714293"
       d="m 907.73523,1649.4205 v -142.8571 h 142.85717 142.8571 v 142.8571 142.8572 H 1050.5924 907.73523 Z"
       id="path87"
       inkscape:connector-curvature="0"
       transform="scale(0.26458333)" />
    <path
       style="fill:#ff6600;stroke-width:2.85714293"
       d="m 607.73523,1649.4205 v -142.8571 h 142.85714 142.85715 v 142.8571 142.8572 H 750.59237 607.73523 Z"
       id="path89"
       inkscape:connector-curvature="0"
       transform="scale(0.26458333)" />
    <path
       style="fill:#ff6600;stroke-width:2.85714293"
       d="m 307.73523,1649.4205 v -142.8571 h 142.85714 142.85715 v 142.8571 142.8572 H 450.59237 307.73523 Z"
       id="path91"
       inkscape:connector-curvature="0"
       transform="scale(0.26458333)" />
    <path
       style="fill:#ffcc00;stroke-width:2.85714293"
       d="M 7.7352312,1649.4205 V 1506.5634 H 150.59237 293.44952 v 142.8571 142.8572 H 150.59237 7.7352312 Z"
       id="path93"
       inkscape:connector-curvature="0"
       transform="scale(0.26458333)" />
    <path
       style="fill:#ffcc00;stroke-width:2.85714293"
       d="M 1207.7352,149.42051 V 6.5633656 h 142.8572 142.8571 V 149.42051 292.27765 h -142.8571 -142.8572 z"
       id="path95"
       inkscape:connector-curvature="0"
       transform="scale(0.26458333)" />
    <path
       style="fill:#2a7fff;stroke-width:2.85714293"
       d="M 307.73523,449.42051 V 306.56337 H 450.59237 593.44952 V 449.42051 592.27765 H 450.59237 307.73523 Z"
       id="path97"
       inkscape:connector-curvature="0"
       transform="scale(0.26458333)" />
    <path
       style="fill:#2a7fff;stroke-width:2.85714293"
       d="M 606.57143,449.42051 V 306.56337 H 749.42857 892.28571 V 449.42051 592.27765 H 749.42857 606.57143 Z"
       id="path99"
       inkscape:connector-curvature="0"
       transform="scale(0.26458333)" />
    <path
       style="fill:#2a7fff;stroke-width:2.85714293"
       d="M 906.57143,449.42051 V 306.56337 h 142.85717 142.8571 V 449.42051 592.27765 H 1049.4286 906.57143 Z"
       id="path101"
       inkscape:connector-curvature="0"
       transform="scale(0.26458333)" />
    <path
       style="fill:#2a7fff;stroke-width:2.85714293"
       d="M 1206.5714,449.42051 V 306.56337 h 142.8572 142.8571 v 142.85714 142.85714 h -142.8571 -142.8572 z"
       id="path103"
       inkscape:connector-curvature="0"
       transform="scale(0.26458333)" />
    <path
       style="fill:#2a7fff;stroke-width:2.85714293"
       d="M 1206.5714,749.42051 V 606.56337 h 142.8572 142.8571 v 142.85714 142.85714 h -142.8571 -142.8572 z"
       id="path105"
       inkscape:connector-curvature="0"
       transform="scale(0.26458333)" />
    <path
       style="fill:#2a7fff;stroke-width:2.85714293"
       d="M 906.57143,749.42051 V 606.56337 h 144.28567 144.2858 V 749.42051 892.27765 H 1050.8571 906.57143 Z"
       id="path107"
       inkscape:connector-curvature="0"
       transform="scale(0.26458333)" />
    <path
       style="fill:#2a7fff;stroke-width:2.85714293"
       d="M 606.57143,749.42051 V 606.56337 H 749.42857 892.28571 V 749.42051 892.27765 H 749.42857 606.57143 Z"
       id="path109"
       inkscape:connector-curvature="0"
       transform="scale(0.26458333)" />
    <path
       style="fill:#2a7fff;stroke-width:2.85714293"
       d="M 306.57143,749.42051 V 606.56337 H 449.42857 592.28571 V 749.42051 892.27765 H 449.42857 306.57143 Z"
       id="path111"
       inkscape:connector-curvature="0"
       transform="scale(0.26458333)" />
    <path
       style="fill:#2a7fff;stroke-width:2.85714293"
       d="M 306.57143,1049.4205 V 906.56337 h 142.85714 142.85714 v 142.85713 142.8572 H 449.42857 306.57143 Z"
       id="path113"
       inkscape:connector-curvature="0"
       transform="scale(0.26458333)" />
    <path
       style="fill:#2a7fff;stroke-width:2.85714293"
       d="M 606.57143,1049.4205 V 906.56337 h 142.85714 142.85714 v 142.85713 142.8572 H 749.42857 606.57143 Z"
       id="path115"
       inkscape:connector-curvature="0"
       transform="scale(0.26458333)" />
    <path
       style="fill:#2a7fff;stroke-width:2.85714293"
       d="M 906.57143,1049.4205 V 906.56337 h 142.85717 142.8571 v 142.85713 142.8572 H 1049.4286 906.57143 Z"
       id="path117"
       inkscape:connector-curvature="0"
       transform="scale(0.26458333)" />
    <path
       style="fill:#2a7fff;stroke-width:2.85714293"
       d="M 1206.5714,1049.4205 V 906.56337 h 142.8572 142.8571 v 142.85713 142.8572 h -142.8571 -142.8572 z"
       id="path119"
       inkscape:connector-curvature="0"
       transform="scale(0.26458333)" />
    <path
       style="fill:#2a7fff;stroke-width:2.85714293"
       d="m 1206.5714,1349.4205 v -142.8571 h 142.8572 142.8571 v 142.8571 142.8572 h -142.8571 -142.8572 z"
       id="path121"
       inkscape:connector-curvature="0"
       transform="scale(0.26458333)" />
    <path
       style="fill:#2a7fff;stroke-width:2.85714293"
       d="m 906.57143,1349.4205 v -142.8571 h 142.85717 142.8571 v 142.8571 142.8572 H 1049.4286 906.57143 Z"
       id="path123"
       inkscape:connector-curvature="0"
       transform="scale(0.26458333)" />
    <path
       style="fill:#2a7fff;stroke-width:2.85714293"
       d="m 606.57143,1349.4205 v -142.8571 h 142.85714 142.85714 v 142.8571 142.8572 H 749.42857 606.57143 Z"
       id="path125"
       inkscape:connector-curvature="0"
       transform="scale(0.26458333)" />
    <path
       style="fill:#2a7fff;stroke-width:2.85714293"
       d="m 306.57143,1349.4205 v -142.8571 h 142.85714 142.85714 v 142.8571 142.8572 H 449.42857 306.57143 Z"
       id="path127"
       inkscape:connector-curvature="0"
       transform="scale(0.26458333)" />
  </g>
  <g
     inkscape:groupmode="layer"
     id="layer4"
     inkscape:label="Layer 2" />
</svg>
